<svg id="a9c62d52-1ba9-489f-b3af-a3fe29ac64d3" data-name="Layer 1" xmlns="http://www.w3.org/2000/svg" width="1013.92081" height="794.68107" viewBox="0 0 1013.92081 794.68107"><title>modern_art</title><circle cx="564.92456" cy="102.49553" r="17.43014" fill="#2f2e41"/><path d="M662.82024,138.20464A17.43256,17.43256,0,0,1,678.16409,163.907a17.426,17.426,0,1,0-28.952-19.14784A17.38717,17.38717,0,0,1,662.82024,138.20464Z" transform="translate(-93.03959 -52.65947)" fill="#2f2e41"/><circle cx="532.35383" cy="51.25756" r="51.20104" fill="#2f2e41"/><path d="M585.20892,72.14921a51.19186,51.19186,0,0,1,70.95815-5.36853c-.41868-.398-.83294-.79922-1.268-1.186a51.201,51.201,0,1,0-68.03629,76.53267c.435.38676.882.75116,1.32633,1.12034A51.19189,51.19189,0,0,1,585.20892,72.14921Z" transform="translate(-93.03959 -52.65947)" fill="#2f2e41"/><circle cx="531.91992" cy="69.04775" r="32.97694" fill="#a0616a"/><path d="M601.52853,132.121s4.33907,39.91945-2.60345,44.25853,39.91946,10.41377,39.91946,10.41377-6.94251-43.39072,10.41377-54.6723Z" transform="translate(-93.03959 -52.65947)" fill="#a0616a"/><path d="M643.18361,169.437s12.92208-6.0343-5.68836-3.885-34.667-6.0949-34.667-6.0949-5.6388-5.6408-6.50661.4339,2.60344,17.35629-16.48847,19.09192-36.4482-3.47126-43.39071,9.546-3.47126,69.42514-3.47126,69.42514,13.01721,46.862,23.431,53.80448,101.53427-2.60344,101.53427-2.60344l26.03443-46.862v-54.6723s-3.47125-19.09191-27.77-13.885c0,0-15.62066-3.47126-14.75285-11.28158S643.18361,169.437,643.18361,169.437Z" transform="translate(-93.03959 -52.65947)" fill="#d0cde1"/><path d="M585.90787,287.45974l-7.81033-5.20688-8.67814,5.20688s-2.60344,19.95973-13.01722,24.2988l4.33908,29.50569s-10.41378,38.18383-2.60345,67.68951c0,0-140.58591,316.75222-110.21241,334.1085s111.948,27.77006,118.02274,19.95973,65.08607-316.75221,65.08607-316.75221S611.9423,753.476,665.74678,759.55071s101.53427.86782,97.1952-7.81033-55.54011-337.57975-55.54011-337.57975S692.649,336.92516,663.14334,321.3045l4.1997-29.08125-8.53877-1.29225-13.01722,4.33907S615.41355,309.1551,585.90787,287.45974Z" transform="translate(-93.03959 -52.65947)" fill="#2f2e41"/><path d="M554.66656,178.11514a66.58421,66.58421,0,0,1,6.0747,39.05165C557.27,238.86214,571.155,292.66663,571.155,292.66663l10.41377-2.60344s-6.94252-45.12635-5.20689-55.54012,1.73563-51.201-6.94251-56.40793S554.66656,178.11514,554.66656,178.11514Z" transform="translate(-93.03959 -52.65947)" fill="#2f2e41"/><path d="M655.59042,196.1518l3.64776,96.08092,6.94251,4.33907s9.97986-105.43943,4.773-105.43943H660.35905A4.7749,4.7749,0,0,0,655.59042,196.1518Z" transform="translate(-93.03959 -52.65947)" fill="#2f2e41"/><path d="M456.60354,738.72317,443.58633,770.8323s-60.747,30.3735-41.65509,42.5229,59.01137-7.81033,59.01137-7.81033l7.81033-10.41377,12.1494.86781,19.09192-6.94251,7.81032-40.78727Z" transform="translate(-93.03959 -52.65947)" fill="#2f2e41"/><path d="M730.83285,738.72317l13.01722,32.10913s60.747,30.3735,41.65508,42.5229-59.01137-7.81033-59.01137-7.81033l-7.81033-10.41377-12.1494.86781-19.09191-6.94251-7.81033-40.78727Z" transform="translate(-93.03959 -52.65947)" fill="#2f2e41"/><circle cx="482.88841" cy="233.49856" r="4.33907" fill="#f03d4d"/><circle cx="569.66984" cy="237.83763" r="4.33907" fill="#f03d4d"/><polygon points="503.716 27.827 503.716 60.804 511.353 60.804 521.072 50.39 519.771 60.804 553.529 60.804 551.446 50.39 555.611 60.804 560.992 60.804 560.992 27.827 503.716 27.827" fill="#2f2e41"/><ellipse cx="498.50907" cy="62.10524" rx="2.60344" ry="4.77298" fill="#a0616a"/><ellipse cx="565.33077" cy="62.10524" rx="2.60344" ry="4.77298" fill="#a0616a"/><circle cx="418.98231" cy="687.5079" r="106.34237" fill="#3f3d56"/><circle cx="519.50907" cy="308.32482" r="106.34237" fill="#f03d4d"/><circle cx="603.41985" cy="541.28715" r="126.28156" fill="#d0cde1"/><polygon points="675.112 794.022 295.265 414.175 675.699 414.175 675.699 415.836 299.276 415.836 676.287 792.847 675.112 794.022" fill="#3f3d56"/><rect x="308.48594" y="793.01947" width="428.69266" height="1.6616" fill="#3f3d56"/><path d="M676.16055,290.06319s-39.48555-7.37642-42.089,5.64079,43.82462,7.37642,43.82462,7.37642Z" transform="translate(-93.03959 -52.65947)" fill="#a0616a"/><path d="M675.29274,200.67832s94.59176,75.49984,77.23547,93.72394S669.218,307.41947,669.218,307.41947l4.33907-21.69535,38.18383-4.33908L692.649,262.29313l-17.35629,1.73563Z" transform="translate(-93.03959 -52.65947)" fill="#d0cde1"/><path d="M535.57464,326.51139l12.1494,9.546s8.67814,26.90225,21.69536,19.09192S557.27,319.56887,557.27,319.56887L542.51716,314.362Z" transform="translate(-93.03959 -52.65947)" fill="#a0616a"/><path d="M547.724,186.79329l-12.11663,3.6463s-84.21075,62.30758-87.682,79.66387,16.48847,26.90224,16.48847,26.90224l75.49984,35.58039,7.81033-20.82755-35.58038-18.2241s2.60344-5.20688-7.81033-6.0747-12.1494-12.1494-12.1494-12.1494,20.82754-32.10912,32.10913-25.16661,14.75284,12.1494,14.75284,12.1494Z" transform="translate(-93.03959 -52.65947)" fill="#d0cde1"/><rect x="160.89644" y="663.82161" width="45.55804" height="45.55804" fill="#cfcce0"/><path d="M293.49959,756.04464H245.54376V708.0888h47.95583Zm-45.558-2.39779H291.1018V710.4866H247.94155Z" transform="translate(-93.03959 -52.65947)" fill="#3f3d56"/><path d="M236.3802,512.39459c16.90362.3626,30.35024,12.61229,30.35024,12.61229s-13.95955,11.6618-30.86317,11.2992-30.35024-12.6123-30.35024-12.6123S219.47659,512.032,236.3802,512.39459Z" transform="translate(-93.03959 -52.65947)" fill="#f03d4d"/><path d="M151.39746,454.69377c15.27169,7.2553,32.78343,2.33538,32.78343,2.33538s-7.24856-16.68308-22.52025-23.93837-32.78342-2.33538-32.78342-2.33538S136.12577,447.43848,151.39746,454.69377Z" transform="translate(-93.03959 -52.65947)" fill="#f03d4d"/><path d="M152.94987,447.48387c16.83734-1.53875,31.575,9.12271,31.575,9.12271s-12.561,13.15627-29.39836,14.695-31.575-9.12272-31.575-9.12272S136.11253,449.02262,152.94987,447.48387Z" transform="translate(-93.03959 -52.65947)" fill="#3f3d56"/><path d="M214.67029,450.399c-1.61385,16.83031,8.98175,31.61543,8.98175,31.61543s13.21218-12.5022,14.826-29.33251-8.98175-31.61542-8.98175-31.61542S216.28414,433.56866,214.67029,450.399Z" transform="translate(-93.03959 -52.65947)" fill="#3f3d56"/><path d="M293.96582,553.61873c-8.83127,14.41778-5.79289,32.352-5.79289,32.352s17.3567-5.44166,26.188-19.85944,5.79289-32.352,5.79289-32.352S302.79709,539.201,293.96582,553.61873Z" transform="translate(-93.03959 -52.65947)" fill="#3f3d56"/><path d="M268.34517,710.37705l1.287-.86989a40.32088,40.32088,0,0,1-7.11618-22.36063c.036-11.69395,5.77986-22.51,11.33484-32.97005,1.03106-1.94153,2.05871-3.877,3.0473-5.81094a126.84837,126.84837,0,0,0,9.86618-24.76821c8.61631-32.01975.1331-69.797-22.69206-101.05454-18.10707-24.79627-45.09932-46.47926-82.51821-66.28821l-.72655,1.37273c37.20577,19.69595,64.0251,41.2299,81.99035,65.83164,22.55061,30.881,30.94168,68.16527,22.44633,99.73491a125.34169,125.34169,0,0,1-9.74862,24.46484c-.98556,1.92674-2.00941,3.85462-3.03668,5.78933C266.83556,664.07489,261,675.06352,260.9628,687.142A41.8882,41.8882,0,0,0,268.34517,710.37705Z" transform="translate(-93.03959 -52.65947)" fill="#3f3d56"/><circle cx="14.75596" cy="390.88036" r="14.75565" fill="#3f3d56"/><rect x="38.92081" y="701.56369" width="189" height="2.26159" fill="#3f3d56"/><rect x="824.92081" y="701.56369" width="189" height="2.26159" fill="#3f3d56"/><path d="M1028.07945,681.38959c-19.911,32.5064-13.06068,72.9409-13.06068,72.9409s39.1325-12.26879,59.04353-44.7752,13.06067-72.9409,13.06067-72.9409S1047.99047,648.88319,1028.07945,681.38959Z" transform="translate(-93.03959 -52.65947)" fill="#3f3d56"/><path d="M1015.8139,755.627l-1.09375-.34277c-.39551-.124-39.7207-12.75586-59.59766-45.20605-19.87695-32.45118-13.26269-73.22266-13.19433-73.63086l.1914-1.12989,1.09375.34278c.39551.124,39.72071,12.75586,59.59766,45.207h0c19.87695,32.45019,13.2627,73.22168,13.19434,73.62988Zm-72.081-117.67773c-.90528,6.84277-4.51368,42.33594,13.09472,71.084,17.60938,28.74707,50.86719,41.65821,57.373,43.96192.90527-6.84278,4.51367-42.33594-13.09473-71.083h0C983.49652,653.16406,950.23871,640.25293,943.73285,637.94922Z" transform="translate(-93.03959 -52.65947)" fill="#3f3d56"/><circle cx="923.22157" cy="574.34053" r="22" fill="#3f3d56"/></svg>