<?xml version="1.0" encoding="UTF-8" standalone="no"?>
<!DOCTYPE svg PUBLIC "-//W3C//DTD SVG 1.1//EN" "http://www.w3.org/Graphics/SVG/1.1/DTD/svg11.dtd">
<svg version="1.1" xmlns="http://www.w3.org/2000/svg" xmlns:xlink="http://www.w3.org/1999/xlink" preserveAspectRatio="xMidYMid meet" viewBox="0 0 21 21" width="21" height="21"><defs><path d="M17.93 4.4C18.31 4.4 18.61 4.7 18.61 5.07C18.61 7.64 18.61 14.67 18.61 17.24C18.61 17.61 18.31 17.91 17.93 17.91C14.83 17.91 6.17 17.91 3.07 17.91C2.69 17.91 2.39 17.61 2.39 17.24C2.39 14.67 2.39 7.64 2.39 5.07C2.39 4.7 2.69 4.4 3.07 4.4C6.17 4.4 14.83 4.4 17.93 4.4Z" id="h8uUD0RaQy"></path><path d="M3.74 5.91L10.5 5.91L10.5 16.41L3.74 16.41L3.74 5.91Z" id="b1yPdDkoD8"></path></defs><g><g><g><g><use xlink:href="#h8uUD0RaQy" opacity="1" fill-opacity="0" stroke="#ffffff" stroke-width="3" stroke-opacity="1"></use></g></g><g><use xlink:href="#b1yPdDkoD8" opacity="0.6" fill="#ffffff" fill-opacity="1"></use><g><use xlink:href="#b1yPdDkoD8" opacity="0.6" fill-opacity="0" stroke="#416b6b" stroke-width="0" stroke-opacity="1"></use></g></g></g></g></svg>